<svg id="visual" viewBox="0 0 1920 1280" width="1920" height="1280" xmlns="http://www.w3.org/2000/svg" xmlns:xlink="http://www.w3.org/1999/xlink" version="1.1"><g stroke-width="1" stroke-linejoin="bevel"><path d="M863.3 648L854.3 815.3L1068.7 674Z" fill="#003d0b" stroke="#003d0b"></path><path d="M854.3 815.3L1026.7 849.3L1068.7 674Z" fill="#00400b" stroke="#00400b"></path><path d="M1080.7 461.7L878.3 458.7L863.3 648Z" fill="#005509" stroke="#005509"></path><path d="M1068.7 674L1080.7 461.7L863.3 648Z" fill="#004b0a" stroke="#004b0a"></path><path d="M1273 850.3L1244 644L1068.7 674Z" fill="#005209" stroke="#005209"></path><path d="M1068.7 674L1244 644L1080.7 461.7Z" fill="#006006" stroke="#006006"></path><path d="M861.3 1080.7L1031.7 1050.7L1026.7 849.3Z" fill="#004e0a" stroke="#004e0a"></path><path d="M1026.7 849.3L1273 850.3L1068.7 674Z" fill="#005509" stroke="#005509"></path><path d="M1031.7 1050.7L1273 850.3L1026.7 849.3Z" fill="#006006" stroke="#006006"></path><path d="M854.3 815.3L861.3 1080.7L1026.7 849.3Z" fill="#005509" stroke="#005509"></path><path d="M605 608L634 890.3L854.3 815.3Z" fill="#004b0a" stroke="#004b0a"></path><path d="M854.3 815.3L634 890.3L861.3 1080.7Z" fill="#004e0a" stroke="#004e0a"></path><path d="M605 608L854.3 815.3L863.3 648Z" fill="#005908" stroke="#005908"></path><path d="M618 464.7L605 608L863.3 648Z" fill="#00440b" stroke="#00440b"></path><path d="M878.3 458.7L618 464.7L863.3 648Z" fill="#005209" stroke="#005209"></path><path d="M1503.3 618L1280 434.7L1244 644Z" fill="#00470b" stroke="#00470b"></path><path d="M1244 644L1280 434.7L1080.7 461.7Z" fill="#00440b" stroke="#00440b"></path><path d="M1080.7 461.7L880.3 237.3L878.3 458.7Z" fill="#006006" stroke="#006006"></path><path d="M878.3 458.7L880.3 237.3L618 464.7Z" fill="#003d0b" stroke="#003d0b"></path><path d="M634 890.3L656 1078.7L861.3 1080.7Z" fill="#00470b" stroke="#00470b"></path><path d="M1031.7 1050.7L1277 1091.7L1273 850.3Z" fill="#004e0a" stroke="#004e0a"></path><path d="M1273 850.3L1503.3 618L1244 644Z" fill="#005908" stroke="#005908"></path><path d="M1098.7 1280L1277 1091.7L1031.7 1050.7Z" fill="#005209" stroke="#005209"></path><path d="M868.3 1280L1031.7 1050.7L861.3 1080.7Z" fill="#00470b" stroke="#00470b"></path><path d="M1071.7 204.3L880.3 237.3L1080.7 461.7Z" fill="#004e0a" stroke="#004e0a"></path><path d="M605 608L445.7 875.3L634 890.3Z" fill="#005c07" stroke="#005c07"></path><path d="M634 890.3L427.7 1027.7L656 1078.7Z" fill="#00400b" stroke="#00400b"></path><path d="M414.7 627L445.7 875.3L605 608Z" fill="#004b0a" stroke="#004b0a"></path><path d="M1280 434.7L1071.7 204.3L1080.7 461.7Z" fill="#00400b" stroke="#00400b"></path><path d="M656 1078.7L868.3 1280L861.3 1080.7Z" fill="#005908" stroke="#005908"></path><path d="M399.7 458.7L605 608L618 464.7Z" fill="#005509" stroke="#005509"></path><path d="M399.7 458.7L414.7 627L605 608Z" fill="#004e0a" stroke="#004e0a"></path><path d="M1501.3 887.3L1503.3 618L1273 850.3Z" fill="#004e0a" stroke="#004e0a"></path><path d="M1280 434.7L1319 243.3L1071.7 204.3Z" fill="#00400b" stroke="#00400b"></path><path d="M868.3 1280L1098.7 1280L1031.7 1050.7Z" fill="#004e0a" stroke="#004e0a"></path><path d="M1484.3 1066.7L1501.3 887.3L1273 850.3Z" fill="#005209" stroke="#005209"></path><path d="M1484.3 1066.7L1273 850.3L1277 1091.7Z" fill="#004e0a" stroke="#004e0a"></path><path d="M1503.3 618L1469.3 423.7L1280 434.7Z" fill="#005209" stroke="#005209"></path><path d="M182.3 876.3L427.7 1027.7L445.7 875.3Z" fill="#005209" stroke="#005209"></path><path d="M445.7 875.3L427.7 1027.7L634 890.3Z" fill="#006006" stroke="#006006"></path><path d="M656 1078.7L614 1280L868.3 1280Z" fill="#004b0a" stroke="#004b0a"></path><path d="M1469.3 423.7L1319 243.3L1280 434.7Z" fill="#00400b" stroke="#00400b"></path><path d="M1098.7 1280L1257 1280L1277 1091.7Z" fill="#00440b" stroke="#00440b"></path><path d="M444.7 245.3L399.7 458.7L618 464.7Z" fill="#004e0a" stroke="#004e0a"></path><path d="M414.7 627L252.3 658L445.7 875.3Z" fill="#004e0a" stroke="#004e0a"></path><path d="M1521.3 1280L1484.3 1066.7L1277 1091.7Z" fill="#005209" stroke="#005209"></path><path d="M875.3 0L630 192.3L880.3 237.3Z" fill="#003d0b" stroke="#003d0b"></path><path d="M880.3 237.3L630 192.3L618 464.7Z" fill="#005908" stroke="#005908"></path><path d="M427.7 1027.7L614 1280L656 1078.7Z" fill="#005509" stroke="#005509"></path><path d="M399.7 458.7L252.3 658L414.7 627Z" fill="#004b0a" stroke="#004b0a"></path><path d="M630 192.3L444.7 245.3L618 464.7Z" fill="#006006" stroke="#006006"></path><path d="M399.7 458.7L193.3 418.7L252.3 658Z" fill="#004b0a" stroke="#004b0a"></path><path d="M1699.7 413.7L1500.3 243.3L1469.3 423.7Z" fill="#005509" stroke="#005509"></path><path d="M1469.3 423.7L1500.3 243.3L1319 243.3Z" fill="#00470b" stroke="#00470b"></path><path d="M1070.7 0L875.3 0L1071.7 204.3Z" fill="#005509" stroke="#005509"></path><path d="M1698.7 840.3L1690.7 639L1503.3 618Z" fill="#00400b" stroke="#00400b"></path><path d="M1503.3 618L1699.7 413.7L1469.3 423.7Z" fill="#004e0a" stroke="#004e0a"></path><path d="M1698.7 840.3L1503.3 618L1501.3 887.3Z" fill="#00440b" stroke="#00440b"></path><path d="M1070.7 0L1071.7 204.3L1262 0Z" fill="#004b0a" stroke="#004b0a"></path><path d="M1071.7 204.3L875.3 0L880.3 237.3Z" fill="#004b0a" stroke="#004b0a"></path><path d="M630 192.3L398.7 0L444.7 245.3Z" fill="#00440b" stroke="#00440b"></path><path d="M1262 0L1071.7 204.3L1319 243.3Z" fill="#005c07" stroke="#005c07"></path><path d="M1720.7 1086.7L1698.7 840.3L1501.3 887.3Z" fill="#006006" stroke="#006006"></path><path d="M427.7 1027.7L396.7 1280L614 1280Z" fill="#005908" stroke="#005908"></path><path d="M178.3 1067.7L396.7 1280L427.7 1027.7Z" fill="#00470b" stroke="#00470b"></path><path d="M1257 1280L1521.3 1280L1277 1091.7Z" fill="#00470b" stroke="#00470b"></path><path d="M1484.3 1066.7L1720.7 1086.7L1501.3 887.3Z" fill="#003d0b" stroke="#003d0b"></path><path d="M252.3 658L182.3 876.3L445.7 875.3Z" fill="#005509" stroke="#005509"></path><path d="M1459.3 0L1262 0L1319 243.3Z" fill="#005908" stroke="#005908"></path><path d="M1690.7 639L1699.7 413.7L1503.3 618Z" fill="#006006" stroke="#006006"></path><path d="M1500.3 243.3L1459.3 0L1319 243.3Z" fill="#00400b" stroke="#00400b"></path><path d="M1920 611L1699.7 413.7L1690.7 639Z" fill="#006006" stroke="#006006"></path><path d="M875.3 0L617 0L630 192.3Z" fill="#00470b" stroke="#00470b"></path><path d="M444.7 245.3L193.3 418.7L399.7 458.7Z" fill="#003d0b" stroke="#003d0b"></path><path d="M252.3 658L0 624L182.3 876.3Z" fill="#004b0a" stroke="#004b0a"></path><path d="M195.3 233.3L193.3 418.7L444.7 245.3Z" fill="#005509" stroke="#005509"></path><path d="M1521.3 1280L1720.7 1086.7L1484.3 1066.7Z" fill="#003d0b" stroke="#003d0b"></path><path d="M1920 219.3L1721.7 187.3L1699.7 413.7Z" fill="#003d0b" stroke="#003d0b"></path><path d="M182.3 876.3L178.3 1067.7L427.7 1027.7Z" fill="#003d0b" stroke="#003d0b"></path><path d="M1721.7 187.3L1459.3 0L1500.3 243.3Z" fill="#00400b" stroke="#00400b"></path><path d="M398.7 0L195.3 233.3L444.7 245.3Z" fill="#005c07" stroke="#005c07"></path><path d="M193.3 418.7L0 624L252.3 658Z" fill="#003d0b" stroke="#003d0b"></path><path d="M182.3 876.3L0 1027.7L178.3 1067.7Z" fill="#00400b" stroke="#00400b"></path><path d="M1521.3 1280L1700.7 1280L1720.7 1086.7Z" fill="#006006" stroke="#006006"></path><path d="M617 0L398.7 0L630 192.3Z" fill="#00470b" stroke="#00470b"></path><path d="M178.3 1067.7L208.3 1280L396.7 1280Z" fill="#003d0b" stroke="#003d0b"></path><path d="M1920 835.3L1690.7 639L1698.7 840.3Z" fill="#00400b" stroke="#00400b"></path><path d="M1699.7 413.7L1721.7 187.3L1500.3 243.3Z" fill="#00470b" stroke="#00470b"></path><path d="M0 451.7L0 624L193.3 418.7Z" fill="#00400b" stroke="#00400b"></path><path d="M178.3 1067.7L0 1280L208.3 1280Z" fill="#00470b" stroke="#00470b"></path><path d="M0 624L0 859.3L182.3 876.3Z" fill="#00470b" stroke="#00470b"></path><path d="M1920 1089.7L1920 835.3L1720.7 1086.7Z" fill="#00470b" stroke="#00470b"></path><path d="M1720.7 1086.7L1920 835.3L1698.7 840.3Z" fill="#004e0a" stroke="#004e0a"></path><path d="M1920 835.3L1920 611L1690.7 639Z" fill="#005209" stroke="#005209"></path><path d="M195.3 233.3L0 451.7L193.3 418.7Z" fill="#005c07" stroke="#005c07"></path><path d="M0 176.3L0 451.7L195.3 233.3Z" fill="#005c07" stroke="#005c07"></path><path d="M0 859.3L0 1027.7L182.3 876.3Z" fill="#00440b" stroke="#00440b"></path><path d="M1920 611L1920 405.7L1699.7 413.7Z" fill="#003d0b" stroke="#003d0b"></path><path d="M1920 1280L1920 1089.7L1720.7 1086.7Z" fill="#006006" stroke="#006006"></path><path d="M398.7 0L217.3 0L195.3 233.3Z" fill="#005908" stroke="#005908"></path><path d="M1920 0L1718.7 0L1721.7 187.3Z" fill="#004b0a" stroke="#004b0a"></path><path d="M1721.7 187.3L1718.7 0L1459.3 0Z" fill="#00400b" stroke="#00400b"></path><path d="M1920 405.7L1920 219.3L1699.7 413.7Z" fill="#003d0b" stroke="#003d0b"></path><path d="M0 1027.7L0 1280L178.3 1067.7Z" fill="#00400b" stroke="#00400b"></path><path d="M1700.7 1280L1920 1280L1720.7 1086.7Z" fill="#00400b" stroke="#00400b"></path><path d="M217.3 0L0 176.3L195.3 233.3Z" fill="#00470b" stroke="#00470b"></path><path d="M217.3 0L0 0L0 176.3Z" fill="#00440b" stroke="#00440b"></path><path d="M1920 219.3L1920 0L1721.7 187.3Z" fill="#005509" stroke="#005509"></path></g></svg>